# xmcd CD database file
#
# Track frame offsets:
#	150
#	9340
#	27639
#	43198
#	61796
#	81036
#	96795
#	113944
#	130650
#	148295
#	164470
#	183045
#	198479
#
# Disc length: 2858 seconds
#
# Revision: 15
# Processed by: cddbd v1.5.2PL0 Copyright (c) Steve Scherf et al.
# Submitted via: CDex 1.51
#
DISCID=ad0b280d
DTITLE=NICKELBACK - THE LONG ROAD
DYEAR=2003
DGENRE=Hard Rock
TTITLE0=FLAT ON THE FLOOR
TTITLE1=DO THIS ANYMORE
TTITLE2=SOMEDAY
TTITLE3=BELIEVE IT OR NOT
TTITLE4=FEELIN' WAY TOO DAMN GOOD
TTITLE5=BECAUSE OF YOU
TTITLE6=FIGURED YOU OUT
TTITLE7=SHOULD'VE LISTENED
TTITLE8=THROW YOURSELF AWAY
TTITLE9=ANOTHER HOLE IN THE HEAD
TTITLE10=SEE YOU AT THE SHOW
TTITLE11=SOMEDAY (ACOUSTIC)
TTITLE12=SLOW MOTION
EXTD=YEAR: 2003
EXTT0=
EXTT1=
EXTT2=
EXTT3=
EXTT4=
EXTT5=
EXTT6=
EXTT7=
EXTT8=
EXTT9=
EXTT10=
EXTT11=
EXTT12=
PLAYORDER=
